<?xml version="1.0" encoding="UTF-8"?>
<svg xmlns="http://www.w3.org/2000/svg" version="1.1" viewBox="0 0 4086 946.8">
  <!-- Generator: Adobe Illustrator 28.6.0, SVG Export Plug-In . SVG Version: 1.2.0 Build 709)  -->
  <g>
    <g id="data">
      <g>
        <g>
          <rect width="299" height="279"/>
          <rect x="328.9" width="79.7" height="79.7"/>
          <rect x="328.9" y="94.7" width="184.4" height="184.4"/>
          <rect x="328.9" y="308.9" width="184.4" height="184.4"/>
          <rect x="543.1" y="308.9" width="184.4" height="184.4"/>
          <rect x="189.4" y="308.9" width="109.6" height="184.4"/>
        </g>
        <g id="text-outline-5">
          <polygon points="98.4 946.8 39.9 946.8 39.9 737.5 98.4 737.5 98.4 825.1 194.2 737.5 249.1 737.5 147.1 839.5 249.1 946.8 194.2 946.8 98.4 859.2 98.4 946.8"/>
          <polygon points="337.6 910.9 488.3 910.9 488.3 946.8 279 946.8 279 737.5 488.3 737.5 488.3 773.3 337.6 773.3 337.6 910.9"/>
          <polygon points="518.2 773.3 518.2 737.5 727.5 737.5 727.5 946.8 518.2 946.8 518.2 910.9 672.5 910.9 672.5 859.2 518.2 859.2 518.2 825.1 672.5 825.1 672.5 773.3 518.2 773.3"/>
        </g>
        <g>
          <rect x="370.9" y="576.1" width="50.1" height="78.6"/>
          <path d="M189.4,523.2v184.4h538.2v-184.4H189.4ZM322.9,625.1h-78.9v29.6h78.9v20.5h-109.6v-69.5h80.8v-29.6h-80.8v-20.5h109.6v69.5ZM449.8,675.2h-109.6v-119.6h109.6v119.6ZM576.7,625.1h-78.9v29.6h78.9v20.5h-109.6v-69.5h80.8v-29.6h-80.8v-20.5h109.6v69.5ZM703.6,675.2h-28.8v-50h-80.8v-69.5h30.7v50h50.1v-50h28.8v119.6h0Z"/>
        </g>
        <path d="M543.1,94.7v184.4h184.4V94.7h-184.4ZM680.2,231.7h-89.7v-89.7h89.7v89.7Z"/>
        <polygon points="1069.9 707.6 966.7 707.6 966.7 338.8 1069.9 338.8 1069.9 493.2 1238.6 338.8 1335.4 338.8 1155.6 518.6 1335.4 707.6 1238.6 707.6 1069.9 553.3 1069.9 707.6"/>
        <polygon points="1498.4 644.4 1764 644.4 1764 707.6 1395.2 707.6 1395.2 338.8 1764 338.8 1764 402 1498.4 402 1498.4 644.4"/>
        <polygon points="1823.8 402 1823.8 338.8 2192.5 338.8 2192.5 707.6 1823.8 707.6 1823.8 644.4 2095.6 644.4 2095.6 553.3 1823.8 553.3 1823.8 493.2 2095.6 493.2 2095.6 402 1823.8 402"/>
        <path d="M2860.2,338.8v368.7h368.7v-368.7h-368.7ZM3132.1,644.4h-168.7v-242.4h168.7v242.4Z"/>
        <polygon points="2800.4 644.4 2800.4 707.6 2431.7 707.6 2431.7 493.2 2703.6 493.2 2703.6 402 2431.7 402 2431.7 338.8 2800.4 338.8 2800.4 553.3 2534.9 553.3 2534.9 644.4 2800.4 644.4"/>
        <polygon points="3657.5 644.4 3657.5 707.6 3288.8 707.6 3288.8 493.2 3560.6 493.2 3560.6 402 3288.8 402 3288.8 338.8 3657.5 338.8 3657.5 553.3 3392 553.3 3392 644.4 3657.5 644.4"/>
        <polygon points="3717.3 553.3 3717.3 338.8 3820.5 338.8 3820.5 493.2 3989.2 493.2 3989.2 338.8 4086 338.8 4086 707.6 3989.2 707.6 3989.2 553.3 3717.3 553.3"/>
      </g>
    </g>
  </g>
</svg>