<svg width="583" height="191" viewBox="0 0 583 191" fill="none" xmlns="http://www.w3.org/2000/svg">
  <path d="M60 45.2656H86.8358C92.8975 45.2656 98.5692 48.255 101.995 53.2556L165.034 145.266H138.199C132.137 145.266 126.465 142.276 123.039 137.276L60 45.2656Z"
        fill="black"/>
  <path d="M165.035 95.9805L165.034 45.2648H130.286L165.035 95.9805Z" fill="black"/>
  <path d="M60.0006 94.5508L60.001 145.266H94.749L60.0006 94.5508Z" fill="black"/>
  <path d="M209.034 66.9453H222.394L248.714 109.345H248.874V66.9453H258.954V123.585H246.154L219.274 79.8253H219.114V123.585H209.034V66.9453Z"
        fill="black"/>
  <path d="M280.736 103.185L266.896 85.1853H278.416L286.736 97.1053L295.296 85.1853H306.336L292.576 103.185L308.256 123.585H296.576L286.576 109.585L276.496 123.585H265.136L280.736 103.185Z"
        fill="black"/>
  <path d="M325.865 75.7453H308.505V66.9453H353.305V75.7453H335.945V123.585H325.865V75.7453Z" fill="black"/>
  <path d="M359.894 66.9453H397.414V75.7453H369.974V90.1453H395.974V98.6253H369.974V114.625H398.854V123.585H359.894V66.9453Z"
        fill="black"/>
  <path d="M408.722 66.9453H422.082L448.402 109.345H448.562V66.9453H458.642V123.585H445.842L418.962 79.8253H418.802V123.585H408.722V66.9453Z"
        fill="black"/>
  <path d="M471.144 66.9453H491.224C494.904 66.9453 498.61 67.4253 502.344 68.3853C506.077 69.3453 509.437 70.9453 512.424 73.1853C515.41 75.372 517.837 78.2786 519.704 81.9053C521.57 85.4786 522.504 89.932 522.504 95.2653C522.504 100.225 521.57 104.492 519.704 108.065C517.837 111.639 515.41 114.572 512.424 116.865C509.437 119.159 506.077 120.865 502.344 121.985C498.61 123.052 494.904 123.585 491.224 123.585H471.144V66.9453ZM489.624 114.785C492.237 114.785 494.85 114.492 497.464 113.905C500.077 113.265 502.424 112.225 504.504 110.785C506.637 109.292 508.37 107.292 509.704 104.785C511.037 102.279 511.704 99.1053 511.704 95.2653C511.704 91.212 511.037 87.9053 509.704 85.3453C508.37 82.7853 506.637 80.7853 504.504 79.3453C502.424 77.9053 500.077 76.9186 497.464 76.3853C494.85 75.852 492.237 75.5853 489.624 75.5853H481.224V114.785H489.624Z"
        fill="black"/>
</svg>
