<svg width="260" height="260" viewBox="0 0 260 260" fill="none" xmlns="http://www.w3.org/2000/svg">
<path d="M40 188.488H47.7457L63.0052 212.338H63.0979V188.488H68.942V220.348H61.521L45.9368 195.733H45.8441V220.348H40V188.488Z" fill="black"/>
<path d="M81.5704 208.873L73.5464 198.748H80.2253L85.049 205.453L90.0118 198.748H96.4124L88.4348 208.873L97.5256 220.348H90.7539L84.9562 212.473L79.1122 220.348H72.526L81.5704 208.873Z" fill="black"/>
<path d="M105.995 193.438H95.9305V188.488H121.904V193.438H111.839V220.348H105.995V193.438Z" fill="black"/>
<path d="M125.724 188.488H147.477V193.438H131.568V201.538H146.642V206.308H131.568V215.308H148.312V220.348H125.724V188.488Z" fill="black"/>
<path d="M154.033 188.488H161.779L177.038 212.338H177.131V188.488H182.975V220.348H175.554L159.97 195.733H159.877V220.348H154.033V188.488Z" fill="black"/>
<path d="M190.223 188.488H201.865C203.998 188.488 206.147 188.758 208.312 189.298C210.476 189.838 212.424 190.738 214.156 191.998C215.888 193.228 217.294 194.863 218.377 196.903C219.459 198.913 220 201.418 220 204.418C220 207.208 219.459 209.608 218.377 211.618C217.294 213.628 215.888 215.278 214.156 216.568C212.424 217.858 210.476 218.818 208.312 219.448C206.147 220.048 203.998 220.348 201.865 220.348H190.223V188.488ZM200.937 215.398C202.452 215.398 203.967 215.233 205.483 214.903C206.998 214.543 208.358 213.958 209.564 213.148C210.801 212.308 211.806 211.183 212.579 209.773C213.352 208.363 213.738 206.578 213.738 204.418C213.738 202.138 213.352 200.278 212.579 198.838C211.806 197.398 210.801 196.273 209.564 195.463C208.358 194.653 206.998 194.098 205.483 193.798C203.967 193.498 202.452 193.348 200.937 193.348H196.067V215.398H200.937Z" fill="black"/>
<path d="M77.8447 48.002H104.496C110.516 48.002 116.149 50.9708 119.551 55.9371L182.156 147.314H155.505C149.485 147.314 143.852 144.345 140.45 139.379L77.8447 48.002Z" fill="black"/>
<path d="M182.157 98.3672L182.156 48.0005H147.647L182.157 98.3672Z" fill="black"/>
<path d="M77.8462 96.9453L77.8466 147.312H112.355L77.8462 96.9453Z" fill="black"/>
</svg>
